<svg width="16" height="16" viewBox="0 0 16 16" fill="black" xmlns="http://www.w3.org/2000/svg">
<path d="M5.6 16C5.38783 16 5.18434 15.9157 5.03431 15.7657C4.88429 15.6157 4.8 15.4122 4.8 15.2V12.8H1.6C1.17565 12.8 0.768687 12.6314 0.468629 12.3314C0.168571 12.0313 0 11.6243 0 11.2V1.6C0 0.712 0.72 0 1.6 0H14.4C14.8243 0 15.2313 0.168571 15.5314 0.468629C15.8314 0.768687 16 1.17565 16 1.6V11.2C16 11.6243 15.8314 12.0313 15.5314 12.3314C15.2313 12.6314 14.8243 12.8 14.4 12.8H9.52L6.56 15.768C6.4 15.92 6.2 16 6 16H5.6ZM6.4 11.2V13.664L8.864 11.2H14.4V1.6H1.6V11.2H6.4ZM3.2 4H12.8V5.6H3.2V4ZM3.2 7.2H10.4V8.8H3.2V7.2Z" />
</svg>
