<svg width="16" height="16" viewBox="0 0 16 16" fill="black" xmlns="http://www.w3.org/2000/svg">
<path d="M16 7.2C16 6.312 15.3455 5.6 14.5455 5.6H9.94909L10.6473 1.944C10.6618 1.864 10.6691 1.776 10.6691 1.688C10.6691 1.36 10.5455 1.056 10.3491 0.84L9.57818 0L4.79273 5.264C4.52364 5.56 4.36364 5.96 4.36364 6.4V14.4C4.36364 14.8243 4.51688 15.2313 4.78966 15.5314C5.06244 15.8314 5.43241 16 5.81818 16H12.3636C12.9673 16 13.4836 15.6 13.7018 15.024L15.8982 9.384C15.9636 9.2 16 9.008 16 8.8V7.2ZM0 16H2.90909V6.4H0V16Z" />
</svg>
