<svg width="19" height="21" viewBox="0 0 19 21" fill="current" xmlns="http://www.w3.org/2000/svg">
<path d="M13.75 15.8335V12.8335H6.75V8.8335H13.75V5.8335L18.75 10.8335L13.75 15.8335ZM11.75 0.833496C12.2804 0.833496 12.7891 1.04421 13.1642 1.41928C13.5393 1.79436 13.75 2.30306 13.75 2.8335V4.8335H11.75V2.8335H2.75V18.8335H11.75V16.8335H13.75V18.8335C13.75 19.3639 13.5393 19.8726 13.1642 20.2477C12.7891 20.6228 12.2804 20.8335 11.75 20.8335H2.75C2.21957 20.8335 1.71086 20.6228 1.33579 20.2477C0.960714 19.8726 0.75 19.3639 0.75 18.8335V2.8335C0.75 2.30306 0.960714 1.79436 1.33579 1.41928C1.71086 1.04421 2.21957 0.833496 2.75 0.833496H11.75Z" fill="white"/>
</svg>
