<svg width="25" height="26" viewBox="0 0 25 26" fill="none" xmlns="http://www.w3.org/2000/svg">
<path d="M17.3301 16.4138H16.2461L15.8619 16.0185C17.2067 14.3495 18.0163 12.1826 18.0163 9.8255C18.0163 4.56951 14.0231 0.309082 9.09687 0.309082C4.17063 0.309082 0.17749 4.56951 0.17749 9.8255C0.17749 15.0815 4.17063 19.3419 9.09687 19.3419C11.3061 19.3419 13.337 18.4781 14.9013 17.0433L15.2718 17.4533V18.6099L22.1329 25.9156L24.1775 23.7341L17.3301 16.4138ZM9.09687 16.4138C5.68006 16.4138 2.92192 13.471 2.92192 9.8255C2.92192 6.17998 5.68006 3.23721 9.09687 3.23721C12.5137 3.23721 15.2718 6.17998 15.2718 9.8255C15.2718 13.471 12.5137 16.4138 9.09687 16.4138Z" fill="black" fill-opacity="0.3"/>
</svg>
