<svg width="20" height="23" viewBox="0 0 20 23" fill="white" xmlns="http://www.w3.org/2000/svg">
<path d="M16.6667 15.6444C15.8222 15.6444 15.0667 15.9778 14.4889 16.5L6.56667 11.8889C6.62222 11.6333 6.66667 11.3778 6.66667 11.1111C6.66667 10.8444 6.62222 10.5889 6.56667 10.3333L14.4 5.76667C15 6.32222 15.7889 6.66667 16.6667 6.66667C18.5111 6.66667 20 5.17778 20 3.33333C20 1.48889 18.5111 0 16.6667 0C14.8222 0 13.3333 1.48889 13.3333 3.33333C13.3333 3.6 13.3778 3.85556 13.4333 4.11111L5.6 8.67778C5 8.12222 4.21111 7.77778 3.33333 7.77778C1.48889 7.77778 0 9.26667 0 11.1111C0 12.9556 1.48889 14.4444 3.33333 14.4444C4.21111 14.4444 5 14.1 5.6 13.5444L13.5111 18.1667C13.4556 18.4 13.4222 18.6444 13.4222 18.8889C13.4222 20.6778 14.8778 22.1333 16.6667 22.1333C18.4556 22.1333 19.9111 20.6778 19.9111 18.8889C19.9111 17.1 18.4556 15.6444 16.6667 15.6444Z" />
</svg>
