<svg width="21" height="21" viewBox="0 0 21 21" fill="current" xmlns="http://www.w3.org/2000/svg">
<path d="M19.1776 4.61262C18.8118 4.99035 18.4568 5.35697 18.4461 5.72358C18.4138 6.07909 18.7796 6.4457 19.1238 6.7901C19.6402 7.34558 20.1459 7.84551 20.1243 8.38988C20.1028 8.93425 19.5542 9.50083 19.0055 10.0563L14.5624 14.6557L13.0347 13.0781L17.6069 8.36766L16.5742 7.30114L15.0465 8.86759L11.0122 4.7015L15.1433 0.446537C15.5629 0.0132637 16.2622 0.0132637 16.6602 0.446537L19.1776 3.04618C19.5972 3.45723 19.5972 4.17935 19.1776 4.61262ZM0.125 15.9555L10.4098 5.32364L14.4441 9.48973L4.15929 20.1216H0.125V15.9555Z" fill="white"/>
</svg>
