<svg width="60" height="80" viewBox="0 0 60 80" fill="white" xmlns="http://www.w3.org/2000/svg">
<path d="M30 60.2597C31.9891 60.2597 33.8968 59.4661 35.3033 58.0535C36.7098 56.6409 37.5 54.725 37.5 52.7273C37.5 48.5468 34.125 45.1948 30 45.1948C28.0109 45.1948 26.1032 45.9884 24.6967 47.401C23.2902 48.8136 22.5 50.7295 22.5 52.7273C22.5 54.725 23.2902 56.6409 24.6967 58.0535C26.1032 59.4661 28.0109 60.2597 30 60.2597ZM52.5 26.3636C54.4891 26.3636 56.3968 27.1572 57.8033 28.5698C59.2098 29.9825 60 31.8984 60 33.8961V71.5584C60 73.5562 59.2098 75.4721 57.8033 76.8847C56.3968 78.2973 54.4891 79.0909 52.5 79.0909H7.5C5.51088 79.0909 3.60322 78.2973 2.1967 76.8847C0.790176 75.4721 0 73.5562 0 71.5584V33.8961C0 29.7156 3.375 26.3636 7.5 26.3636H11.25V18.8312C11.25 13.8368 13.2254 9.04705 16.7417 5.51552C20.2581 1.98399 25.0272 0 30 0C32.4623 0 34.9005 0.487083 37.1753 1.43344C39.4502 2.37979 41.5172 3.76689 43.2583 5.51552C44.9994 7.26416 46.3805 9.34009 47.3227 11.6248C48.265 13.9095 48.75 16.3582 48.75 18.8312V26.3636H52.5ZM30 7.53247C27.0163 7.53247 24.1548 8.72286 22.045 10.8418C19.9353 12.9607 18.75 15.8346 18.75 18.8312V26.3636H41.25V18.8312C41.25 15.8346 40.0647 12.9607 37.955 10.8418C35.8452 8.72286 32.9837 7.53247 30 7.53247Z" />
</svg>
