<svg width="20" height="21" viewBox="0 0 20 21" fill="current" xmlns="http://www.w3.org/2000/svg">
<path d="M10.0946 13.5835C9.16631 13.5835 8.27607 13.2147 7.61969 12.5584C6.96332 11.902 6.59457 11.0118 6.59457 10.0835C6.59457 9.15524 6.96332 8.265 7.61969 7.60862C8.27607 6.95225 9.16631 6.5835 10.0946 6.5835C11.0228 6.5835 11.9131 6.95225 12.5694 7.60862C13.2258 8.265 13.5946 9.15524 13.5946 10.0835C13.5946 11.0118 13.2258 11.902 12.5694 12.5584C11.9131 13.2147 11.0228 13.5835 10.0946 13.5835ZM17.5246 11.0535C17.5646 10.7335 17.5946 10.4135 17.5946 10.0835C17.5946 9.7535 17.5646 9.4235 17.5246 9.0835L19.6346 7.4535C19.8246 7.3035 19.8746 7.0335 19.7546 6.8135L17.7546 3.3535C17.6346 3.1335 17.3646 3.0435 17.1446 3.1335L14.6546 4.1335C14.1346 3.7435 13.5946 3.4035 12.9646 3.1535L12.5946 0.503496C12.5546 0.263496 12.3446 0.0834961 12.0946 0.0834961H8.09457C7.84457 0.0834961 7.63457 0.263496 7.59457 0.503496L7.22457 3.1535C6.59457 3.4035 6.05457 3.7435 5.53457 4.1335L3.04457 3.1335C2.82457 3.0435 2.55457 3.1335 2.43457 3.3535L0.434566 6.8135C0.304566 7.0335 0.364566 7.3035 0.554566 7.4535L2.66457 9.0835C2.62457 9.4235 2.59457 9.7535 2.59457 10.0835C2.59457 10.4135 2.62457 10.7335 2.66457 11.0535L0.554566 12.7135C0.364566 12.8635 0.304566 13.1335 0.434566 13.3535L2.43457 16.8135C2.55457 17.0335 2.82457 17.1135 3.04457 17.0335L5.53457 16.0235C6.05457 16.4235 6.59457 16.7635 7.22457 17.0135L7.59457 19.6635C7.63457 19.9035 7.84457 20.0835 8.09457 20.0835H12.0946C12.3446 20.0835 12.5546 19.9035 12.5946 19.6635L12.9646 17.0135C13.5946 16.7535 14.1346 16.4235 14.6546 16.0235L17.1446 17.0335C17.3646 17.1135 17.6346 17.0335 17.7546 16.8135L19.7546 13.3535C19.8746 13.1335 19.8246 12.8635 19.6346 12.7135L17.5246 11.0535Z" fill="white"/>
</svg>
