<svg width="56" height="56" viewBox="0 0 56 56" fill="none" xmlns="http://www.w3.org/2000/svg">
<circle cx="28" cy="28" r="27.5" fill="#263959" stroke="#263959"/>
<path d="M10.7001 39.1925L10.6977 39.349L10.785 39.4788C14.4856 44.9868 20.826 48.66 28 48.66C35.174 48.66 41.5144 44.9868 45.215 39.4788L45.3023 39.349L45.2999 39.1925C45.2763 37.6139 44.4729 36.2515 43.2701 35.1175C42.0695 33.9854 40.4381 33.0472 38.6626 32.2992C35.1138 30.8042 30.8689 30.02 28 30.02C25.1311 30.02 20.8862 30.8042 17.3374 32.2992C15.5619 33.0472 13.9305 33.9854 12.7299 35.1175C11.5271 36.2515 10.7237 37.6139 10.7001 39.1925ZM34.2933 10.5068C32.6242 8.83768 30.3604 7.9 28 7.9C25.6396 7.9 23.3758 8.83768 21.7067 10.5068C20.0377 12.1758 19.1 14.4396 19.1 16.8C19.1 19.1604 20.0377 21.4242 21.7067 23.0933C23.3758 24.7623 25.6396 25.7 28 25.7C30.3604 25.7 32.6242 24.7623 34.2933 23.0933C35.9623 21.4242 36.9 19.1604 36.9 16.8C36.9 14.4396 35.9623 12.1758 34.2933 10.5068ZM17.4762 2.59331C20.8127 1.21131 24.3886 0.5 28 0.5C43.1248 0.5 55.5 12.7931 55.5 28C55.5 35.2935 52.6027 42.2882 47.4454 47.4454C42.2882 52.6027 35.2935 55.5 28 55.5C24.3886 55.5 20.8127 54.7887 17.4762 53.4067C14.1398 52.0247 11.1082 49.999 8.55456 47.4454C3.39731 42.2882 0.5 35.2935 0.5 28C0.5 20.7065 3.39731 13.7118 8.55456 8.55456C11.1082 6.00095 14.1398 3.97532 17.4762 2.59331Z" fill="white" stroke="#263959"/>
</svg>
